<?xml version="1.0" encoding="utf-8"?>
<!-- Generator: Adobe Illustrator 22.1.0, SVG Export Plug-In . SVG Version: 6.00 Build 0)  -->
<svg version="1.1" id="Слой_1" xmlns="http://www.w3.org/2000/svg" xmlns:xlink="http://www.w3.org/1999/xlink" x="0px" y="0px"
	 viewBox="0 0 48 48" style="enable-background:new 0 0 48 48;" xml:space="preserve">
<style type="text/css">
	.st0{fill:#FFFFFF;}
</style>
<g>
	<path class="st0" d="M34.1,8.7c-2.7,0-4.8,2.2-4.8,4.8s2.2,4.8,4.8,4.8s4.8-2.2,4.8-4.8S36.7,8.7,34.1,8.7z M34.1,16.4
		c-1.6,0-2.8-1.3-2.8-2.8s1.3-2.8,2.8-2.8c1.6,0,2.8,1.3,2.8,2.8S35.6,16.4,34.1,16.4z"/>
	<path class="st0" d="M1.9,44.5c0,0.6,0.5,1,1,1.1l10.5,0.9c0.6,0.1,1.1-0.3,1.2-0.9l0.8-4l4-0.8c0.5-0.1,0.8-0.4,0.9-0.9l0.8-4
		l4-0.8c0.4-0.1,0.7-0.4,0.9-0.7l1.6-4.7l0.2,0c1.3,0.4,2.7,0.6,4,0.6c3.8,0,7.5-1.5,10.2-4.2c2.7-2.7,4.2-6.3,4.2-10.2
		c0-3.9-1.5-7.5-4.2-10.2C39.2,3,35.5,1.5,31.7,1.5c-8,0-14.4,6.5-14.4,14.4c0,1.5,0.2,3,0.7,4.5l0,0.1L2.2,36.1
		c-0.2,0.2-0.3,0.5-0.3,0.8L1.9,44.5L1.9,44.5L1.9,44.5z M23.1,26.2c0.2-0.2,0.3-0.5,0.3-0.8c0-0.3-0.1-0.6-0.3-0.8
		c-3.5-3.5-4.5-8.6-2.6-13.3c1.9-4.6,6.2-7.5,11.2-7.5c0,0,0,0,0,0c3.2,0,6.3,1.3,8.6,3.6c2.3,2.3,3.6,5.3,3.6,8.6s-1.3,6.3-3.6,8.6
		c-2.3,2.3-5.3,3.6-8.6,3.6c-1.5,0-3-0.3-4.4-0.8c-0.3-0.1-0.6-0.1-0.9,0c-0.3,0.1-0.5,0.4-0.6,0.7L24,33.1l-4.1,0.8
		c-0.5,0.1-0.8,0.4-0.9,0.9l-0.8,4l-4,0.8c-0.5,0.1-0.8,0.4-0.9,0.9l-0.7,3.7l-7-0.6 M4.2,37.4L4.2,37.4l14.8-14.6l0.1,0.2
		c0.4,0.8,0.9,1.5,1.5,2.2l0.1,0.1l-0.1,0.1L4.2,41.7V37.4z"/>
</g>
</svg>
