<?xml version="1.0" encoding="utf-8"?>
<!-- Generator: Adobe Illustrator 22.1.0, SVG Export Plug-In . SVG Version: 6.00 Build 0)  -->
<svg version="1.1" id="Слой_1" xmlns="http://www.w3.org/2000/svg" xmlns:xlink="http://www.w3.org/1999/xlink" x="0px" y="0px"
	 viewBox="0 0 48 48" style="enable-background:new 0 0 48 48;" xml:space="preserve">
<style type="text/css">
	.st0{fill:#FFFFFF;}
</style>
<path class="st0" d="M37.6,0.6H10.4c-1.6,0-2.9,1.3-2.9,2.9v41c0,1.6,1.3,2.9,2.9,2.9h22.3c0.3,0,0.6-0.1,0.8-0.3l6.8-6.8
	c0.2-0.2,0.3-0.5,0.3-0.8v-36C40.6,1.9,39.2,0.6,37.6,0.6z M33.7,43.7v-2.3c0-0.4,0.3-0.7,0.7-0.7h2.3L33.7,43.7z M38.4,38.4h-3.9
	c-1.6,0-2.9,1.3-2.9,2.9v3.9H10.4c-0.4,0-0.7-0.3-0.7-0.7V8.6h28.7V38.4z M38.4,6.4H9.6V3.5c0-0.4,0.3-0.7,0.7-0.7h27.3
	c0.4,0,0.7,0.3,0.7,0.7V6.4z"/>
<path class="st0" d="M26.4,13.6H13.5c-0.6,0-1.1,0.5-1.1,1.1s0.5,1.1,1.1,1.1h12.8c0.6,0,1.1-0.5,1.1-1.1S27,13.6,26.4,13.6z"/>
<path class="st0" d="M33.6,13.6h-3.3c-0.6,0-1.1,0.5-1.1,1.1s0.5,1.1,1.1,1.1h3.3c0.6,0,1.1-0.5,1.1-1.1S34.2,13.6,33.6,13.6z"/>
<path class="st0" d="M26.4,20.4H13.5c-0.6,0-1.1,0.5-1.1,1.1s0.5,1.1,1.1,1.1h12.8c0.6,0,1.1-0.5,1.1-1.1S27,20.4,26.4,20.4z"/>
<path class="st0" d="M33.6,20.4h-3.3c-0.6,0-1.1,0.5-1.1,1.1s0.5,1.1,1.1,1.1h3.3c0.6,0,1.1-0.5,1.1-1.1S34.2,20.4,33.6,20.4z"/>
<path class="st0" d="M26.4,27.2H13.5c-0.6,0-1.1,0.5-1.1,1.1s0.5,1.1,1.1,1.1h12.8c0.6,0,1.1-0.5,1.1-1.1S27,27.2,26.4,27.2z"/>
<path class="st0" d="M33.6,27.2h-3.3c-0.6,0-1.1,0.5-1.1,1.1s0.5,1.1,1.1,1.1h3.3c0.6,0,1.1-0.5,1.1-1.1S34.2,27.2,33.6,27.2z"/>
<path class="st0" d="M33.6,32.8h-9.3c-0.6,0-1.1,0.5-1.1,1.1s0.5,1.1,1.1,1.1h9.3c0.6,0,1.1-0.5,1.1-1.1S34.2,32.8,33.6,32.8z"/>
</svg>
