<svg xmlns="http://www.w3.org/2000/svg" viewBox="0 0 48 48" width="48px" height="48px" version="1.1">
    <!-- Generator: Sketch 59.1 (86144) - https://sketch.com -->
    <title>cards_white_mainpage_ic</title>
    <desc>Created with Sketch.</desc>
    <g id="cards_white_mainpage_ic" fill="none" fill-rule="evenodd" stroke="none" stroke-width="1">
        <g id="cards_ic" fill="#ffffff" fill-rule="nonzero">
            <path id="Combined-Shape" d="M 12 1.6 C 12.8 0.1 14.7 -0.4 16.2 0.4 L 16.2 0.4 L 27.4 6.9 L 41.4 6.9 C 43.1 6.9 44.5 8.3 44.5 10 L 44.5 10 L 44.5 16.7 L 46.3 17.8 C 47.8 18.7 48.3 20.6 47.5 22.1 L 47.5 22.1 L 44.5 27.2 L 44.5 32.8 C 44.5 34.5 43.1 35.9 41.4 35.9 L 41.4 35.9 L 39.5 35.9 L 36.1 41.8 C 35.3 43.3 33.4 43.8 31.9 43 L 31.9 43 L 19.6 35.9 L 6.6 35.9 C 4.9 35.9 3.5 34.5 3.5 32.8 L 3.5 32.8 L 3.5 26.6 L 1.7 25.5 C 0.2 24.7 -0.3 22.8 0.6 21.3 L 0.6 21.3 L 3.5 16.2 L 3.5 10 C 3.5 8.3 4.9 6.9 6.6 6.9 L 6.6 6.9 L 8.9 6.9 Z M 37.2 35.9 L 23.6 35.9 L 32.9 41.3 C 33.4 41.6 34 41.4 34.3 40.9 L 34.3 40.9 L 37.2 35.9 Z M 41.5 8.9 L 6.5 8.9 C 6 8.9 5.5 9.3 5.5 9.9 L 5.5 9.9 L 5.5 32.8 C 5.5 33.3 5.9 33.8 6.5 33.8 L 6.5 33.8 L 41.5 33.8 C 42 33.8 42.5 33.4 42.5 32.8 L 42.5 32.8 L 42.5 9.9 C 42.5 9.4 42.1 8.9 41.5 8.9 L 41.5 8.9 Z M 27.5 28.9 C 28 28.9 28.5 29.3 28.5 29.9 C 28.5 30.5 28.1 30.9 27.5 30.9 L 27.5 30.9 L 9.5 30.9 C 8.9 30.9 8.5 30.5 8.5 29.9 C 8.5 29.3 8.9 28.9 9.5 28.9 L 9.5 28.9 Z M 19.5 24.4 C 20.1 24.4 20.5 24.8 20.5 25.4 C 20.5 26 20.1 26.4 19.5 26.4 L 19.5 26.4 L 9.5 26.4 C 8.9 26.4 8.5 26 8.5 25.4 C 8.5 24.8 8.9 24.4 9.5 24.4 L 9.5 24.4 Z M 3.39978 24.2435 L 3.4 24.3 L 3.5 24.3 L 3.39978 24.2435 Z M 3.4 20.2 L 2.2 22.4 C 1.9 22.9 2.1 23.5 2.6 23.8 L 2.6 23.8 L 3.39978 24.2435 L 3.4 20.2 Z M 44.5 19.1 L 44.5 23.2 L 45.8 21 C 46 20.5 45.9 19.9 45.4 19.6 L 45.4 19.6 L 44.5 19.1 Z M 37.5 11.9 C 38.6 11.9 39.5 12.8 39.5 13.9 L 39.5 13.9 L 39.5 16.9 C 39.5 18 38.6 18.9 37.5 18.9 L 37.5 18.9 L 33.5 18.9 C 32.4 18.9 31.5 18 31.5 16.9 L 31.5 16.9 L 31.5 13.9 C 31.5 12.8 32.4 11.9 33.5 11.9 L 33.5 11.9 Z M 37.5 13.9 L 33.5 13.9 L 33.5 16.9 L 37.5 16.9 L 37.5 13.9 Z M 15.1 2.1 C 14.6 1.8 14 2 13.7 2.5 L 13.7 2.5 L 11.2 6.9 L 23.3 6.9 Z" />
        </g>
    </g>
</svg>