<?xml version="1.0" encoding="utf-8"?>
<!-- Generator: Adobe Illustrator 22.1.0, SVG Export Plug-In . SVG Version: 6.00 Build 0)  -->
<svg version="1.1" id="Слой_1" xmlns="http://www.w3.org/2000/svg" xmlns:xlink="http://www.w3.org/1999/xlink" x="0px" y="0px"
	 viewBox="0 0 48 48" style="enable-background:new 0 0 48 48;" xml:space="preserve">
<style type="text/css">
	.st0{fill:#FFFFFF;}
</style>
<path class="st0" d="M40.6,0.1H20c-0.6,0-1,0.4-1,1s0.4,1,1,1h19.6v38.6c0,0.6,0.4,1,1,1s1-0.4,1-1V1.1C41.6,0.6,41.2,0.1,40.6,0.1z
	"/>
<path class="st0" d="M6.6,14c1.1-1.9,7.1-7.4,8.5-8.7c0.4-0.3,0.8-0.6,1.3-0.7c0.2-0.1,0.5-0.1,0.7-0.1h17.3c1.5,0,2.8,1.2,2.8,2.8
	v37.8c0,1.5-1.2,2.8-2.8,2.8H9.2c-1.5,0-2.8-1.2-2.8-2.8V14.8C6.4,14.7,6.5,14.2,6.6,14z M34.9,7.3c0-0.3-0.3-0.6-0.6-0.6H18.4v6.6
	c0,1.5-1.2,2.8-2.8,2.8h-7v29c0,0.3,0.3,0.6,0.6,0.6h25.1c0.3,0,0.6-0.3,0.6-0.6V7.3z M16.2,13.3V7.2c-2.1,1.9-4.9,4.7-6.8,6.7h6.2
	C15.9,13.9,16.2,13.6,16.2,13.3z"/>
<path class="st0" d="M29.8,27.3H13.6c-0.5,0-1,0.4-1,1c0,0.5,0.4,1,1,1h16.2c0.5,0,1-0.4,1-1C30.8,27.8,30.4,27.3,29.8,27.3z"/>
<path class="st0" d="M29.8,33H13.6c-0.5,0-1,0.4-1,1c0,0.5,0.4,1,1,1h16.2c0.5,0,1-0.4,1-1C30.8,33.5,30.4,33,29.8,33z"/>
<path class="st0" d="M29.8,38.7H13.6c-0.5,0-1,0.4-1,1c0,0.5,0.4,1,1,1h16.2c0.5,0,1-0.4,1-1C30.8,39.2,30.4,38.7,29.8,38.7z"/>
<path class="st0" d="M29.8,21.6h-9.2c-0.5,0-1,0.4-1,1s0.4,1,1,1h9.2c0.5,0,1-0.4,1-1S30.4,21.6,29.8,21.6z"/>
</svg>
