<?xml version="1.0" encoding="utf-8"?>
<!-- Generator: Adobe Illustrator 21.1.0, SVG Export Plug-In . SVG Version: 6.00 Build 0)  -->
<svg version="1.1" id="Layer_1" xmlns="http://www.w3.org/2000/svg" xmlns:xlink="http://www.w3.org/1999/xlink" x="0px" y="0px"
	 viewBox="0 0 30 30" style="enable-background:new 0 0 30 30;" xml:space="preserve">
<style type="text/css">
	.st0{fill:#FFFFFF;}
</style>
<path class="st0" d="M1.7,3.3h26.7C29.3,3.3,30,4.1,30,5s-0.7,1.7-1.7,1.7H1.7C0.7,6.7,0,5.9,0,5S0.7,3.3,1.7,3.3z M1.7,13.3h26.7
	c0.9,0,1.7,0.7,1.7,1.7s-0.7,1.7-1.7,1.7H1.7C0.7,16.7,0,15.9,0,15S0.7,13.3,1.7,13.3z M1.7,23.3h26.7c0.9,0,1.7,0.7,1.7,1.7
	s-0.7,1.7-1.7,1.7H1.7C0.7,26.7,0,25.9,0,25S0.7,23.3,1.7,23.3z"/>
</svg>
