<?xml version="1.0" encoding="utf-8"?>
<!-- Generator: Adobe Illustrator 22.1.0, SVG Export Plug-In . SVG Version: 6.00 Build 0)  -->
<svg version="1.1" id="Слой_1" xmlns="http://www.w3.org/2000/svg" xmlns:xlink="http://www.w3.org/1999/xlink" x="0px" y="0px"
	 viewBox="0 0 46.8 40.1" style="enable-background:new 0 0 46.8 40.1;" xml:space="preserve">
<style type="text/css">
	.st0{fill:#FFFFFF;}
</style>
<g>
	<path class="st0" d="M26.2,25.3c-0.2,0-0.4,0.1-0.5,0.1c-0.5,0.1-0.8,0.5-0.7,1c0,0.2,0.2,0.4,0.4,0.6c0.2,0.1,0.4,0.2,0.7,0.1
		c0.2,0,0.4-0.1,0.6-0.1c0.5-0.1,0.8-0.6,0.6-1.1S26.6,25.1,26.2,25.3z"/>
	<path class="st0" d="M32.6,13.6c0.1,0.2,0.2,0.3,0.3,0.4c0.2,0.2,0.5,0.2,0.8,0.1c0.5-0.2,0.7-0.6,0.6-1.1
		c-0.1-0.2-0.1-0.4-0.2-0.6c-0.2-0.4-0.7-0.7-1.1-0.5c-0.4,0.2-0.7,0.7-0.5,1.1C32.5,13.2,32.6,13.4,32.6,13.6z"/>
	<path class="st0" d="M29,24c-0.2,0.1-0.3,0.2-0.5,0.3c-0.4,0.2-0.6,0.8-0.3,1.2c0.1,0.1,0.2,0.2,0.3,0.3c0.3,0.2,0.6,0.2,0.9,0
		c0.2-0.1,0.4-0.2,0.6-0.3c0.4-0.3,0.5-0.8,0.2-1.2C29.9,23.9,29.4,23.7,29,24z"/>
	<path class="st0" d="M34.8,16c0-0.5-0.4-0.9-0.9-0.8c-0.5,0-0.9,0.4-0.8,0.9c0,0.2,0,0.4,0,0.6c0,0.3,0.1,0.6,0.4,0.7
		c0.1,0.1,0.3,0.2,0.5,0.2c0.5,0,0.9-0.4,0.9-0.9C34.8,16.5,34.8,16.2,34.8,16z"/>
	<path class="st0" d="M32.5,21.7c-0.4-0.3-0.9-0.2-1.2,0.2c-0.1,0.1-0.2,0.3-0.3,0.4c-0.3,0.4-0.3,0.9,0.1,1.2c0,0,0,0,0.1,0
		c0.4,0.3,0.9,0.2,1.2-0.1c0.1-0.2,0.3-0.3,0.4-0.5C32.9,22.6,32.9,22,32.5,21.7z"/>
	<path class="st0" d="M33.8,18.6c-0.5-0.1-0.9,0.1-1.1,0.6c-0.1,0.2-0.1,0.4-0.2,0.5c-0.1,0.4,0,0.8,0.3,1c0.1,0,0.1,0.1,0.2,0.1
		c0.4,0.2,1-0.1,1.1-0.5c0.1-0.2,0.2-0.4,0.2-0.6C34.5,19.2,34.2,18.7,33.8,18.6z"/>
	<path class="st0" d="M22.4,25.4c-0.8-0.1-1.5-0.4-2.2-0.7l0,0c-0.2-0.1-0.3-0.2-0.5-0.3l0,0c-0.3-0.2-0.6-0.3-0.9-0.5
		c-4.1-2.9-5.1-8.6-2.2-12.7c0.6-0.9,1.4-1.6,2.2-2.2l0,0c3-2.1,7-2.2,10.2-0.1l-0.7,1c-0.2,0.3-0.1,0.5,0.3,0.4l3-0.3
		c0.3,0,0.5-0.3,0.4-0.6l-0.8-2.9c-0.1-0.3-0.3-0.4-0.5-0.1l-0.7,1c-2.3-1.6-5.1-2.2-7.9-1.7c-0.3,0-0.6,0.1-0.8,0.2l0,0l0,0
		c-2.4,0.6-4.5,2-6,4l0,0c0,0.1-0.1,0.1-0.1,0.2c-0.1,0.1-0.2,0.2-0.2,0.3l0,0c-1.2,1.9-1.8,4.1-1.7,6.3l0,0c0,0.2,0,0.4,0.1,0.7
		l0,0c0,0.2,0.1,0.4,0.1,0.7c0.4,2.2,1.4,4.3,3,5.8l0,0l0,0c0.4,0.4,0.9,0.8,1.4,1.2c1.3,0.9,2.8,1.5,4.3,1.8c0.5,0.1,0.9-0.2,1-0.7
		C23.2,25.9,22.9,25.5,22.4,25.4z"/>
	<path class="st0" d="M29.7,19.6c-0.1-0.2-0.2-0.4-0.5-0.5l-5-2.6V11c0-0.5-0.4-0.9-0.9-0.9s-0.9,0.4-0.9,0.9v6.6l6,3.1
		c0.1,0.1,0.3,0.1,0.4,0.1c0.4,0,0.7-0.2,0.8-0.5C29.8,20.1,29.8,19.8,29.7,19.6z"/>
	<path class="st0" d="M43.4,0h-40C1.5,0,0,1.5,0,3.4V30c0,1.9,1.5,3.4,3.4,3.4h13.2v4.7h-5c-0.5,0-1,0.4-1,1s0.4,1,1,1h23.7
		c0.5,0,1-0.4,1-1s-0.4-1-1-1h-4.5v-4.7h12.6c1.9,0,3.4-1.5,3.4-3.4V3.4C46.8,1.5,45.3,0,43.4,0z M28.8,38.1H18.5v-4.7h10.3
		C28.8,33.4,28.8,38.1,28.8,38.1z M44.9,30c0,0.8-0.7,1.5-1.5,1.5h-40c-0.8,0-1.5-0.7-1.5-1.5V3.4c0-0.8,0.7-1.5,1.5-1.5h40
		c0.8,0,1.5,0.7,1.5,1.5V30z"/>
</g>
</svg>
