<?xml version="1.0" encoding="utf-8"?>
<!-- Generator: Adobe Illustrator 21.1.0, SVG Export Plug-In . SVG Version: 6.00 Build 0)  -->
<svg version="1.1" id="Layer_1" xmlns="http://www.w3.org/2000/svg" xmlns:xlink="http://www.w3.org/1999/xlink" x="0px" y="0px"
	 viewBox="0 0 105 105" style="enable-background:new 0 0 105 105;" xml:space="preserve">
<style type="text/css">
	.st0{opacity:0.3;fill:#FFFFFF;enable-background:new    ;}
	.st1{fill:#FFFFFF;}
	.st2{fill:#4a2c78;}
</style>
<path class="st0" d="M68.2,99.7c-9,0-20-3.1-33.2-9.2C12.9,80.2,1.1,68.7,0.1,56.5C-1,44.3,8.6,30.9,28.6,17l0,0
	C48.5,3,64.3-1.5,75.5,3.7c11.1,5.2,17.9,20.2,20,44.4c2.1,24.3-1.9,40.2-12,47.2C79.4,98.3,74.3,99.7,68.2,99.7z M29.1,17.8
	C9.5,31.5,0,44.5,1.1,56.4c1,11.9,12.6,23,34.4,33.2c21.8,10.1,37.7,11.8,47.5,5s13.6-22.4,11.6-46.3C92.4,24.3,85.8,9.6,75,4.6
	S48.8,4,29.1,17.8L29.1,17.8z"/>
<circle id="Ellipse_3_copy_1_" class="st1" cx="52" cy="50.6" r="22"/>
<path class="st2" d="M49.4,51.2H51c1.1,0,2,0.3,2.6,0.8c0.6,0.5,0.9,1.3,0.9,2.3c0,1-0.3,1.8-0.8,2.4c-0.6,0.5-1.4,0.8-2.4,0.8
	c-1,0-1.8-0.3-2.4-0.8c-0.6-0.5-0.9-1.3-0.9-2.2h-2.2c0,1.4,0.5,2.6,1.5,3.4c1,0.9,2.3,1.3,3.9,1.3c1.6,0,2.9-0.4,3.9-1.3
	c1-0.9,1.5-2.1,1.5-3.6c0-1-0.3-1.8-0.8-2.5c-0.5-0.7-1.2-1.2-2.2-1.5c0.8-0.3,1.5-0.9,2-1.6c0.5-0.7,0.7-1.4,0.7-2.2
	c0-1.5-0.5-2.7-1.4-3.6c-0.9-0.9-2.2-1.3-3.8-1.3c-1.5,0-2.8,0.4-3.8,1.3c-1,0.9-1.5,2-1.5,3.4h2.2c0-0.9,0.3-1.6,0.8-2.1
	c0.6-0.5,1.3-0.8,2.2-0.8c2,0,3,1,3,3c0,0.9-0.3,1.6-0.9,2.1c-0.6,0.5-1.4,0.8-2.4,0.8h-1.6V51.2z"/>
</svg>
