<?xml version="1.0" encoding="utf-8"?>
<!-- Generator: Adobe Illustrator 21.1.0, SVG Export Plug-In . SVG Version: 6.00 Build 0)  -->
<svg version="1.1" id="Layer_1" xmlns="http://www.w3.org/2000/svg" xmlns:xlink="http://www.w3.org/1999/xlink" x="0px" y="0px"
	 viewBox="0 0 105 105" style="enable-background:new 0 0 105 105;" xml:space="preserve">
<style type="text/css">
	.st0{opacity:0.3;fill:#FFFFFF;enable-background:new    ;}
	.st1{fill:#cedc00;}
	.st2{fill:#FFFFFF;}
</style>
<path class="st0" d="M61.7,104.4c-10.8,0-23.6-7.4-38.2-21.9l0,0C6.2,65.2-0.9,50.4,2.3,38.6C5.5,26.7,19,17.5,42.6,11.2
	C66.1,4.8,82.5,6,91.2,14.7s9.9,25,3.6,48.6s-15.5,37.1-27.4,40.3C65.5,104.1,63.6,104.4,61.7,104.4z M24.2,81.7
	c17,17,31.4,24,42.9,20.9S87.6,86.2,93.8,63s5.1-39.2-3.3-47.6S66,5.9,42.8,12.1C19.7,18.3,6.3,27.3,3.3,38.8
	C0.2,50.3,7.2,64.8,24.2,81.7L24.2,81.7z"/>
<circle class="st1" cx="52" cy="50.6" r="22"/>
<path class="st2" d="M53.4,41.9H53l-6.2,2.3v2l4.4-1.6V59h2.2V41.9z"/>
</svg>
