<?xml version="1.0" encoding="utf-8"?>
<!-- Generator: Adobe Illustrator 21.1.0, SVG Export Plug-In . SVG Version: 6.00 Build 0)  -->
<svg version="1.1" id="Layer_1" xmlns="http://www.w3.org/2000/svg" xmlns:xlink="http://www.w3.org/1999/xlink" x="0px" y="0px"
	 viewBox="0 0 105 105" style="enable-background:new 0 0 105 105;" xml:space="preserve">
<style type="text/css">
	.st0{opacity:0.3;fill:#FFFFFF;enable-background:new    ;}
	.st1{fill:#FFFFFF;}
	.st2{fill:#4a2c78;}
</style>
<path class="st0" d="M36.8,98.7c-6.1,0-11.2-1.4-15.3-4.3c-10.1-7-14.1-22.9-12-47.3l0,0c2.1-24.3,8.9-39.2,20-44.4
	C40.7-2.5,56.4,2,76.4,16s29.6,27.3,28.5,39.5S92.1,79.2,70,89.5C56.8,95.6,45.7,98.7,36.8,98.7z M10.5,47.2
	c-2.1,23.9,1.8,39.5,11.6,46.3s25.7,5.1,47.5-5s33.3-21.3,34.4-33.2c1-11.9-8.4-24.9-28.1-38.6S40.7-1.4,29.9,3.6
	C19.2,8.6,12.6,23.3,10.5,47.2L10.5,47.2z"/>
<circle id="Ellipse_3_copy" class="st1" cx="52" cy="50.6" r="22"/>
<path class="st2" d="M57.4,57.2h-8.6l4.6-5c2.1-2.3,3.2-4.3,3.2-6c0-1.4-0.5-2.5-1.4-3.3c-0.9-0.8-2.2-1.2-3.8-1.2
	c-1.7,0-3,0.5-4.1,1.5c-1,1-1.5,2.2-1.5,3.8h2.2c0-1.1,0.3-1.9,0.9-2.6c0.6-0.6,1.4-0.9,2.5-0.9c0.9,0,1.6,0.3,2.2,0.9
	c0.5,0.6,0.8,1.3,0.8,2.2c0,0.7-0.2,1.3-0.5,1.9c-0.3,0.6-0.9,1.4-1.8,2.4l-5.9,6.6V59h11.2V57.2z"/>
</svg>
