<?xml version="1.0" encoding="utf-8"?>
<!-- Generator: Adobe Illustrator 22.1.0, SVG Export Plug-In . SVG Version: 6.00 Build 0)  -->
<svg version="1.1" id="Слой_1" xmlns="http://www.w3.org/2000/svg" xmlns:xlink="http://www.w3.org/1999/xlink" x="0px" y="0px"
	 viewBox="0 0 48 34.3" style="enable-background:new 0 0 48 34.3;" xml:space="preserve">
<style type="text/css">
	.st0{fill:#FFFFFF;}
</style>
<g>
	<path class="st0" d="M39.4,23.9c-0.5,0-1,0.4-1,1v8.4c0,0.5,0.4,1,1,1c0.5,0,1-0.4,1-1v-8.4C40.4,24.3,39.9,23.9,39.4,23.9z"/>
	<path class="st0" d="M23.7,23.9L23.7,23.9L23.7,23.9c-0.2,0-0.5,0.1-0.6,0.2c-0.2,0.2-0.4,0.4-0.4,0.7v5v3.4c0,0.5,0.4,1,1,1l0,0
		c0.5,0,1-0.4,1-1v-8.3C24.7,24.3,24.3,23.9,23.7,23.9z"/>
	<path class="st0" d="M40.1,15.1l-1.6-0.7l0.8-1.5c0.7-1.3,1-2.7,1.1-4.1c0-4.8-4-8.8-8.8-8.8l0,0c-4.9,0-8.8,3.9-8.8,8.8
		c0,1.4,0.4,2.9,1,4.1l0.8,1.5L23,15.1c-1.4,0.6-2.6,1.4-3.5,2.2c-0.5-0.4-1.1-0.8-1.8-1.1l-0.8-0.4l0.4-0.8c0.5-0.9,0.8-1.9,0.8-3
		c0-3.5-2.9-6.3-6.4-6.3S5.4,8.5,5.3,12c0,1,0.3,2.1,0.7,3l0.4,0.8l-0.8,0.4C0.7,18.5,0,22.8,0,26.4v2.7C0,29.6,0.4,30,0.9,30
		s0.9-0.4,0.9-0.9v-2.7c0-3.7,0.7-7.4,5.8-8.9L8,17.3l0.3,0.2c2,1.2,4.5,1.2,6.6,0l0.3-0.2l0.4,0.1c1.1,0.3,1.9,0.7,2.6,1.2
		c-2.6,3.2-3.1,7.2-3.1,10.7v3.9c0,0.5,0.4,1,1,1s1-0.4,1-1v-3.9c0-3.3,0.4-6.7,2.5-9.4c0.4-0.5,0.8-0.9,1.3-1.3
		c1.2-1,2.8-1.9,4.8-2.5l0.7-0.2l0.6,0.4c2.8,1.7,6.3,1.7,9.1,0l0.6-0.4l0.7,0.2c7.6,2.3,8.6,8,8.6,13.2v3.9c0,0.5,0.4,1,1,1
		c0.5,0,1-0.4,1-1v-3.9C48,24.3,47.1,18.2,40.1,15.1z M11.9,16.6h-0.5l0,0C9,16.5,7.1,14.5,7.1,12c0-1.2,0.5-2.3,1.4-3.2
		c0.8-0.8,2-1.3,3.2-1.3c2.5,0,4.5,2.1,4.5,4.6C16.1,14.5,14.3,16.5,11.9,16.6z M31.6,15.6L31.6,15.6c-3.9,0-6.9-3.1-6.9-6.9
		c0-1.8,0.7-3.6,2.1-4.8c1.3-1.3,3-2,4.9-2c3.8,0,6.9,3.1,6.8,6.9C38.4,12.6,35.3,15.6,31.6,15.6z"/>
</g>
</svg>
