<svg id="Layer_1" data-name="Layer 1" xmlns="http://www.w3.org/2000/svg" viewBox="0 0 290 64">
  <defs>
    <style>
      .cls-1 {
        fill: #50287d;
      }

      .cls-2 {
        fill: #d0df00;
      }
    </style>
  </defs>
  <title>Renins_Logotype_Health-01</title>
  <path class="cls-1" d="M156.07,38.83a5.68,5.68,0,0,1-2.07-.38,5.09,5.09,0,0,1-1.71-1.09,5.43,5.43,0,0,1-.05-7.68l0.05-.05A5.11,5.11,0,0,1,154,28.53a5.68,5.68,0,0,1,2.09-.38,5.77,5.77,0,0,1,2.59.6,3.91,3.91,0,0,1,.93.62,3.08,3.08,0,0,1,.6.73l-0.42,1.25a3.62,3.62,0,0,0-.64-0.67,4.58,4.58,0,0,0-.85-0.56,4.36,4.36,0,0,0-1-.38,4.48,4.48,0,0,0-1.11-.14,5,5,0,0,0-1.69.27,3.64,3.64,0,0,0-1.31.78,3.57,3.57,0,0,0-.84,1.22,4.14,4.14,0,0,0-.29,1.62,4.29,4.29,0,0,0,.3,1.63,3.27,3.27,0,0,0,.85,1.22,3.86,3.86,0,0,0,1.31.76,5,5,0,0,0,1.69.27,4.71,4.71,0,0,0,2.23-.51,4,4,0,0,0,1.47-1.22l0.4,1.23A5.66,5.66,0,0,1,156.07,38.83Z"/>
  <path class="cls-1" d="M169.88,28.33v1.42H166.4V38.6h-1.34V29.74h-3.52V28.33h8.35Z"/>
  <path class="cls-1" d="M178.38,31.47a3.15,3.15,0,0,1-.24,1.25,3.07,3.07,0,0,1-.65,1,2.74,2.74,0,0,1-1,.64,3.81,3.81,0,0,1-1.31.22h-1.89v4h-1.34V28.33h3.23A3.12,3.12,0,0,1,178.38,31.47Zm-1.4,0a1.55,1.55,0,0,0-.13-0.65,1.75,1.75,0,0,0-.34-0.53,1.71,1.71,0,0,0-.51-0.36,1.56,1.56,0,0,0-.65-0.15h-2.11v3.39h2.11A1.55,1.55,0,0,0,177,31.49Z"/>
  <path class="cls-1" d="M181.16,36.21l-1,2.4h-1.45L183,28.33h1.49l4.23,10.28h-1.45l-1-2.4h-5.1Zm4.5-1.42-2-4.74-2,4.74h3.92Z"/>
  <path class="cls-1" d="M189.63,38.6l3.65-5.32-3.45-5h1.69L194.1,32l2.61-3.69h1.68l-3.45,5,3.69,5.32H197l-2.85-4-2.8,4h-1.71Z"/>
  <path class="cls-1" d="M205.1,38.8a5.36,5.36,0,0,1-2.09-.4,5.79,5.79,0,0,1-1.74-1.11,5.08,5.08,0,0,1-1.2-1.69,5.49,5.49,0,0,1,0-4.29,5.09,5.09,0,0,1,1.2-1.69A5.82,5.82,0,0,1,203,28.53a5.75,5.75,0,0,1,4.21,0A5.82,5.82,0,0,1,209,29.63a5.11,5.11,0,0,1,1.2,1.69,5.34,5.34,0,0,1,.43,2.14A5.48,5.48,0,0,1,205.1,38.8Zm4.1-5.3a3.59,3.59,0,0,0-.33-1.52,3.87,3.87,0,0,0-2.18-2.05,4.6,4.6,0,0,0-3.27,0A3.87,3.87,0,0,0,201.25,32a3.71,3.71,0,0,0,0,3,3.86,3.86,0,0,0,2.18,2.05,4.61,4.61,0,0,0,3.27,0A3.87,3.87,0,0,0,208.87,35a3.59,3.59,0,0,0,.33-1.52v0Z"/>
  <path class="cls-1" d="M218.28,33.12a2.61,2.61,0,0,1,1,.93,2.73,2.73,0,0,1,.42,1.52,3.29,3.29,0,0,1-.25,1.31,2.59,2.59,0,0,1-.69.95,2.91,2.91,0,0,1-1,.58,4.16,4.16,0,0,1-1.27.2H213V28.33h3a4.16,4.16,0,0,1,1.27.18,2.86,2.86,0,0,1,1,.54,2.81,2.81,0,0,1,.65,3.23,2.44,2.44,0,0,1-.65.82Zm-1.6,4a1.86,1.86,0,0,0,.64-0.11,1.42,1.42,0,0,0,.53-0.33,1.71,1.71,0,0,0,.36-0.51,1.56,1.56,0,0,0,.15-0.65,1.48,1.48,0,0,0-.46-1.07,1.58,1.58,0,0,0-1.16-.47h-2.4v3.12Zm-0.42-4.56a1.66,1.66,0,0,0,1.09-.38,1.28,1.28,0,0,0,.47-1,1.35,1.35,0,0,0-.44-1,1.55,1.55,0,0,0-1.11-.42h-1.93v2.9Z"/>
  <path class="cls-1" d="M223.55,36.21l-1,2.4h-1.45l4.23-10.28h1.49l4.24,10.28h-1.45l-1-2.4h-5.11Zm4.5-1.42-2-4.74-2,4.74h3.92Z"/>
  <path class="cls-1" d="M234.43,28.33V32.6h6.12V28.33h1.35V38.6h-1.34V34h-6.13V38.6h-1.34V28.33h1.34Z"/>
  <path class="cls-1" d="M252.69,38.6V30.45l-6.06,8.15h-1.51V28.33h1.35V36.5l6.1-8.17H254V38.6h-1.34Z"/>
  <path class="cls-1" d="M263.06,28.33v1.42h-4.45V32.6h4V34h-4v3.18h4.45V38.6h-5.79V28.33h5.79Z"/>
  <path class="cls-1" d="M34.37,28.59a4.77,4.77,0,0,1-.34,1.8,4,4,0,0,1-1,1.4,4.49,4.49,0,0,1-1.46.91,5.13,5.13,0,0,1-1.88.33H27.89V38.6H25.6V24.05h4.12A4.45,4.45,0,0,1,34.37,28.59Zm-6.48,2H30a2,2,0,0,0,1.44-.55A1.92,1.92,0,0,0,32,28.63a2,2,0,0,0-.55-1.44,1.91,1.91,0,0,0-1.44-.59H27.89v4Z"/>
  <path class="cls-1" d="M49.78,32.13h4.94V28.32h2.21V38.59H54.72V34.48H49.78v4.12H47.57V28.33h2.21v3.81Z"/>
  <path class="cls-1" d="M64.89,36.67a4.11,4.11,0,0,0,3.18-1.36L68.72,37a5.1,5.1,0,0,1-3.87,1.88,5.81,5.81,0,0,1-2.15-.36A4.88,4.88,0,0,1,61,37.49a4.76,4.76,0,0,1-1.14-1.71,6.11,6.11,0,0,1-.41-2.25,5.82,5.82,0,0,1,.37-2.07,5.51,5.51,0,0,1,1-1.72,4.78,4.78,0,0,1,1.62-1.2,5.12,5.12,0,0,1,2.13-.43,4.69,4.69,0,0,1,3.59,1.58,5,5,0,0,1,1,1.7,6.29,6.29,0,0,1,.33,2,5,5,0,0,1-.06.81H61.69A3.06,3.06,0,0,0,64.89,36.67Zm-0.41-6.24a2.68,2.68,0,0,0-2.79,2h5.57A2.71,2.71,0,0,0,64.48,30.43Z"/>
  <path class="cls-1" d="M40.58,36.67a4.12,4.12,0,0,0,3.18-1.36L44.41,37a5.1,5.1,0,0,1-3.87,1.88,5.81,5.81,0,0,1-2.15-.36,4.88,4.88,0,0,1-1.72-1.07,4.74,4.74,0,0,1-1.13-1.71,6.08,6.08,0,0,1-.41-2.25,5.85,5.85,0,0,1,.36-2.07,5.54,5.54,0,0,1,1-1.72,4.77,4.77,0,0,1,1.62-1.2,5.12,5.12,0,0,1,2.13-.43,4.7,4.7,0,0,1,3.59,1.58,5,5,0,0,1,1,1.7,6.25,6.25,0,0,1,.34,2,4.84,4.84,0,0,1-.06.81H37.38A3.06,3.06,0,0,0,40.58,36.67Zm-0.41-6.24a2.68,2.68,0,0,0-2.79,2H43A2.71,2.71,0,0,0,40.18,30.43Z"/>
  <path class="cls-1" d="M87.56,38.9a5.4,5.4,0,0,1,0-10.8,4.69,4.69,0,0,1,3.77,1.74l-0.61,1.83a4.75,4.75,0,0,0-2.84-1.22,3.13,3.13,0,0,0-3.42,3,2.84,2.84,0,0,0,1,2.21,3.58,3.58,0,0,0,2.49.85,4.55,4.55,0,0,0,3-1.19l0.65,1.83A5.37,5.37,0,0,1,87.56,38.9Z"/>
  <path class="cls-1" d="M76.54,38.9a5.4,5.4,0,0,1,0-10.8,4.69,4.69,0,0,1,3.77,1.74l-0.61,1.83a4.75,4.75,0,0,0-2.84-1.22,3.13,3.13,0,0,0-3.42,3,2.84,2.84,0,0,0,1,2.21,3.58,3.58,0,0,0,2.49.85,4.55,4.55,0,0,0,3-1.19l0.65,1.83A5.37,5.37,0,0,1,76.54,38.9Z"/>
  <path class="cls-1" d="M123.7,38.9a5.4,5.4,0,0,1,0-10.8,4.69,4.69,0,0,1,3.77,1.74l-0.61,1.83A4.75,4.75,0,0,0,124,30.46a3.13,3.13,0,0,0-3.42,3,2.84,2.84,0,0,0,1,2.21,3.58,3.58,0,0,0,2.49.85,4.55,4.55,0,0,0,3-1.19l0.65,1.83A5.38,5.38,0,0,1,123.7,38.9Z"/>
  <path class="cls-1" d="M101.49,38.6V37.53a4.24,4.24,0,0,1-3.1,1.36,5.2,5.2,0,0,1-5.27-5.39,5,5,0,0,1,5.11-5.43,4.7,4.7,0,0,1,3.22,1.31v-1h2.14V38.6h-2.1Zm-6.18-5.11a3.05,3.05,0,0,0,3.24,3,3.59,3.59,0,0,0,2.86-1.22V31.64a3.74,3.74,0,0,0-2.86-1.21A3,3,0,0,0,95.31,33.49Z"/>
  <path class="cls-1" d="M109,32.13H114V28.32h2.21V38.59H114V34.48H109v4.12h-2.21V28.33H109v3.81Z"/>
  <rect class="cls-1" x="129.87" y="35.77" width="2.83" height="2.83"/>
  <polygon class="cls-2" points="137.68 34.48 129.87 19.94 145.49 19.94 137.68 34.48"/>
</svg>
