<svg xmlns="http://www.w3.org/2000/svg" width="222" height="48" viewBox="0 0 222 48">
  <metadata><?xpacket begin="﻿" id="W5M0MpCehiHzreSzNTczkc9d"?>
<x:xmpmeta xmlns:x="adobe:ns:meta/" x:xmptk="Adobe XMP Core 5.6-c140 79.160451, 2017/05/06-01:08:21        ">
   <rdf:RDF xmlns:rdf="http://www.w3.org/1999/02/22-rdf-syntax-ns#">
      <rdf:Description rdf:about=""/>
   </rdf:RDF>
</x:xmpmeta>
                                                                                                    
                                                                                                    
                                                                                                    
                                                                                                    
                                                                                                    
                                                                                                    
                                                                                                    
                                                                                                    
                                                                                                    
                                                                                                    
                                                                                                    
                                                                                                    
                                                                                                    
                                                                                                    
                                                                                                    
                                                                                                    
                                                                                                    
                                                                                                    
                                                                                                    
                                                                                                    
                           
<?xpacket end="w"?></metadata>
<defs>
    <style>
      .cls-1 {
        fill: #fff;
        fill-rule: evenodd;
      }
    </style>
  </defs>
  <path id="Alfa-DeveloperHub" class="cls-1" d="M11124,406.709l-4.9-14.747a5.025,5.025,0,0,0-1.8-.289,3.489,3.489,0,0,0-.8.078c-0.2.052-.4,0.122-0.7,0.211l-5.1,14.747h3a4.416,4.416,0,0,1,.4-1q0.15-.511.3-0.933a3.363,3.363,0,0,0,.2-0.955h5.3q0.15,0.466.3,0.955,0.15,0.421.3,0.933t0.3,1h3.2Zm-4.8-5.375h-3.8a12.227,12.227,0,0,1,.6-1.776,7.23,7.23,0,0,1,.3-1.044,4.427,4.427,0,0,1,.1-0.6q0.15-.378.3-0.844a5.432,5.432,0,0,1,.3-0.966q0.15-.567.3-1.277h0.1q0.15,0.733.3,1.311a10.076,10.076,0,0,0,.3.977c0.1,0.311.1,0.577,0.2,0.8a2.078,2.078,0,0,1,.2.577,7.288,7.288,0,0,1,.3,1.045c0.1,0.443.3,1.043,0.5,1.8h0Zm9.3,5.375V391.718h-2.8v14.991h2.8Zm9.4-15.125a16.822,16.822,0,0,0-2.1-.133,6.255,6.255,0,0,0-2,.267,2.506,2.506,0,0,0-1.2.866c-0.1.133-.2,0.278-0.3,0.433a1.389,1.389,0,0,1-.2.533,1.938,1.938,0,0,1-.1.711v2.3h-1.4V398.8h1.4v7.907h2.7V398.8h2.8v-2.243h-2.8v-1.2c0-.34.1-0.618,0.1-0.833a0.86,0.86,0,0,1,.3-0.5,0.968,0.968,0,0,1,.6-0.245,7.122,7.122,0,0,1,1.1-.066h0.3a2.019,2.019,0,0,1,.3.022Zm9,14.1a5.024,5.024,0,0,1-.5-0.767q-0.15-.344-0.3-0.7c0-.236-0.1-0.488-0.1-0.755s-0.1-.577-0.1-0.932V398.7c0-.274-0.1-0.511-0.1-0.711a1.008,1.008,0,0,0-.2-0.533,0.776,0.776,0,0,0-.2-0.433,2.645,2.645,0,0,0-1.2-.855,6.034,6.034,0,0,0-2-.278,14.523,14.523,0,0,0-3.6.422l0.4,2.044q0.6-.09,1.2-0.145a9.058,9.058,0,0,1,1-.056,7.913,7.913,0,0,1,1.1.067,1.319,1.319,0,0,1,.6.245,2.268,2.268,0,0,1,.3.5v1.344q-0.3-.088-0.6-0.145a5.975,5.975,0,0,0-.8-0.055,4.376,4.376,0,0,0-3.1.966,3.584,3.584,0,0,0-.8,4.02,2.172,2.172,0,0,0,.7,1.021,3.242,3.242,0,0,0,1.1.623,4.208,4.208,0,0,0,1.3.21,5.435,5.435,0,0,0,1.1-.1,4.727,4.727,0,0,0,1-.278,2.08,2.08,0,0,0,.4-0.2q0.15-.088.6-0.333a2.055,2.055,0,0,0,.5.577,1.533,1.533,0,0,0,.5.311Zm-4.3-.989c-0.2.022-.5,0.033-0.7,0.033a2.069,2.069,0,0,1-1.2-.311,1.21,1.21,0,0,1-.4-1.088,1.277,1.277,0,0,1,.5-1.11,3.4,3.4,0,0,1,1.6-.311,3.817,3.817,0,0,1,.5.033q0.15,0.033.3,0.078v1.788c0,0.274.1,0.5,0.1,0.677A1.934,1.934,0,0,1,11142.6,404.7Zm15.7-10.583h1.4a2.12,2.12,0,0,1,1.4.456,2.8,2.8,0,0,1,.9,1.166,4.105,4.105,0,0,1,.4,1.6,10.412,10.412,0,0,1,.1,1.754,11.123,11.123,0,0,1-.1,1.8,8.052,8.052,0,0,1-.4,1.688,3.006,3.006,0,0,1-.9,1.244,2.214,2.214,0,0,1-1.4.488h-1.4V394.116Zm0.3-2.565c-0.4.007-.8,0.022-1.3,0.044-0.4.023-.7,0.045-1.1,0.067-0.3.023-.6,0.041-0.9,0.056v15.013c0.3,0.03.6,0.059,1,.089,0.3,0.029.7,0.056,1.1,0.078,0.5,0.022.9,0.037,1.3,0.044,0.5,0.008.9,0.011,1.3,0.011a5.271,5.271,0,0,0,2.6-.6,5.626,5.626,0,0,0,1.8-1.655,12.909,12.909,0,0,0,1-2.476,14.958,14.958,0,0,0,.3-3.088,14.681,14.681,0,0,0-.4-3.131,6.018,6.018,0,0,0-1.1-2.388,5.322,5.322,0,0,0-1.8-1.532,6.479,6.479,0,0,0-2.7-.544C11159.3,391.54,11159,391.544,11158.6,391.551Zm12.6,13.048a1.644,1.644,0,0,1-.8-0.544,1.325,1.325,0,0,1-.4-0.833,3.6,3.6,0,0,1-.2-1.066h6.6v-1.111a12.988,12.988,0,0,0-.2-2.076,6.483,6.483,0,0,0-.8-1.621,3.073,3.073,0,0,0-1.4-1.055,4.572,4.572,0,0,0-2-.378,4.679,4.679,0,0,0-2.1.445,4.589,4.589,0,0,0-1.6,1.221,4.192,4.192,0,0,0-1,1.843,5.859,5.859,0,0,0-.4,2.31,3.07,3.07,0,0,0,.1.888,4.711,4.711,0,0,0,.2,1.122,5.683,5.683,0,0,0,.5,1.166,3.2,3.2,0,0,0,.9,1.044,5.568,5.568,0,0,0,1.4.755,6.9,6.9,0,0,0,2.1.289,14.985,14.985,0,0,0,3.6-.445l-0.4-2.087q-0.75.154-1.5,0.244a12.226,12.226,0,0,1-1.4.089A3,3,0,0,1,11171.2,404.6Zm-1.4-4.4a3.826,3.826,0,0,1,.6-1.7,1.713,1.713,0,0,1,1.5-.633,1.578,1.578,0,0,1,.8.188,1.082,1.082,0,0,1,.6.511q0.15,0.322.3,0.744a2.652,2.652,0,0,1,0,.889h-3.8Zm7.4-4.042,3.5,10.46a1.867,1.867,0,0,0,.6.234,5.975,5.975,0,0,0,.8.055,3.727,3.727,0,0,0,.7-0.055,1.7,1.7,0,0,0,.7-0.234l3.5-10.46h-2.7l-1.3,4.819a4.351,4.351,0,0,0-.4,1.266c-0.1.488-.2,1.14-0.4,1.955h0c-0.1-.637-0.3-1.211-0.4-1.722s-0.2-1.01-.3-1.5l-1.3-4.819h-3Zm13.9,8.439a1.644,1.644,0,0,1-.8-0.544,2.352,2.352,0,0,1-.5-0.833c0-.325-0.1-0.681-0.1-1.066h6.6v-1.111a12.988,12.988,0,0,0-.2-2.076,6.483,6.483,0,0,0-.8-1.621,3.719,3.719,0,0,0-1.4-1.055,4.572,4.572,0,0,0-2-.378,4.679,4.679,0,0,0-2.1.445,4.589,4.589,0,0,0-1.6,1.221,4.192,4.192,0,0,0-1,1.843,5.859,5.859,0,0,0-.4,2.31,3.07,3.07,0,0,0,.1.888,4.711,4.711,0,0,0,.2,1.122,5.683,5.683,0,0,0,.5,1.166,3.2,3.2,0,0,0,.9,1.044,5.568,5.568,0,0,0,1.4.755,6.9,6.9,0,0,0,2.1.289,14.985,14.985,0,0,0,3.6-.445l-0.5-2.087c-0.5.1-.9,0.185-1.4,0.244a12.577,12.577,0,0,1-1.5.089A2.822,2.822,0,0,1,11191.1,404.6Zm-1.4-4.4a3.826,3.826,0,0,1,.6-1.7,1.713,1.713,0,0,1,1.5-.633,1.578,1.578,0,0,1,.8.188,1.6,1.6,0,0,1,.6.511q0.15,0.322.3,0.744V400.2h-3.8Zm11.6,6.507V391.718h-2.8v14.991h2.8Zm6.8-1.988a1.413,1.413,0,0,1-.7-0.521,2.593,2.593,0,0,1-.5-1.045,7.622,7.622,0,0,1-.2-1.709,7.515,7.515,0,0,1,.2-1.688,2.486,2.486,0,0,1,.5-1.033,1.436,1.436,0,0,1,.7-0.511,2.348,2.348,0,0,1,.8-0.144,1.827,1.827,0,0,1,.7.144,1.436,1.436,0,0,1,.7.511,2.486,2.486,0,0,1,.5,1.033,4.256,4.256,0,0,1,.2,1.688,4.333,4.333,0,0,1-.2,1.709,2.593,2.593,0,0,1-.5,1.045,1.413,1.413,0,0,1-.7.521,1.809,1.809,0,0,1-.7.144A2.324,2.324,0,0,1,11208.1,404.721Zm2.8,1.921a3.9,3.9,0,0,0,1.5-1.088,3.733,3.733,0,0,0,1-1.732,5.611,5.611,0,0,0,.4-2.288,7.939,7.939,0,0,0-.3-2.243,5.164,5.164,0,0,0-.9-1.777,4.49,4.49,0,0,0-1.6-1.177,4.9,4.9,0,0,0-2.1-.422,5.061,5.061,0,0,0-2.2.422,4.131,4.131,0,0,0-1.5,1.177,5.355,5.355,0,0,0-1,1.777,10.416,10.416,0,0,0,.1,4.531,4.857,4.857,0,0,0,1,1.732,3.593,3.593,0,0,0,1.6,1.088,4.889,4.889,0,0,0,2,.378A5.236,5.236,0,0,0,11210.9,406.642Zm11.5-.133a4.182,4.182,0,0,0,1.3-1.077,4.594,4.594,0,0,0,.9-1.721,8.081,8.081,0,0,0,.4-2.31,8.7,8.7,0,0,0-.4-2.476,4.179,4.179,0,0,0-.9-1.688,3.979,3.979,0,0,0-1.4-.967,5.827,5.827,0,0,0-2-.311,14.272,14.272,0,0,0-2.5.223,16.316,16.316,0,0,0-2.2.533v13.97h2.8v-4.4a2.825,2.825,0,0,0,1,.411,4.636,4.636,0,0,0,1.3.189A3.825,3.825,0,0,0,11222.4,406.509Zm-1.4-8.051a1.949,1.949,0,0,1,.7.655q0.15,0.423.3,1.011a5.226,5.226,0,0,1,.1,1.277,4.2,4.2,0,0,1-.6,2.354,1.76,1.76,0,0,1-1.5.911,2.742,2.742,0,0,1-.8-0.1,2.363,2.363,0,0,1-.8-0.389v-5.686a2.559,2.559,0,0,1,.8-0.21,5.815,5.815,0,0,1,.8-0.056A1.8,1.8,0,0,1,11221,398.458Zm9,6.141a2.311,2.311,0,0,1-.8-0.544,2.183,2.183,0,0,1-.4-0.833,3.649,3.649,0,0,1-.1-1.066h6.6v-1.111a6.823,6.823,0,0,0-.3-2.076,4.131,4.131,0,0,0-.7-1.621,3.719,3.719,0,0,0-1.4-1.055,4.889,4.889,0,0,0-2-.378,5.458,5.458,0,0,0-2.2.445,5.736,5.736,0,0,0-1.6,1.221,8.185,8.185,0,0,0-1,1.843,8.5,8.5,0,0,0-.3,2.31v0.888c0.1,0.356.1,0.73,0.2,1.122a6.236,6.236,0,0,0,.6,1.166,3.2,3.2,0,0,0,.9,1.044,3.427,3.427,0,0,0,1.4.755,6.9,6.9,0,0,0,2.1.289,15.622,15.622,0,0,0,3.6-.445l-0.5-2.087q-0.75.154-1.5,0.244a9.892,9.892,0,0,1-1.4.089A3,3,0,0,1,11230,404.6Zm-1.3-4.4a2.912,2.912,0,0,1,.6-1.7,1.641,1.641,0,0,1,1.4-.633,1.993,1.993,0,0,1,.9.188,1.306,1.306,0,0,1,.5.511,1.06,1.06,0,0,1,.3.744,2.618,2.618,0,0,1,.1.889h-3.8Zm11.5-.733a3.131,3.131,0,0,1,.9-0.8,1.981,1.981,0,0,1,1-.244,2.376,2.376,0,0,1,.6.078c0.2,0.052.3,0.122,0.6,0.21l0.6-2.376a1.606,1.606,0,0,0-.6-0.355,1.951,1.951,0,0,0-.7-0.133,2.645,2.645,0,0,0-1.5.4,3.616,3.616,0,0,0-1.3,1.354c-0.1-.148-0.1-0.318-0.2-0.511a1.333,1.333,0,0,0-.3-0.544,4.856,4.856,0,0,0-.3-0.455,1.034,1.034,0,0,0-.4-0.266l-1.9.91c0.2,0.489.3,0.992,0.5,1.51a9.976,9.976,0,0,1,.2,1.933v6.529h2.8v-7.24Zm12.7,7.24h2.9v-6.774h4.3v6.774h2.9V391.718h-2.9v5.841h-4.3v-5.841h-2.9v14.991Zm17.1-2.2a1.041,1.041,0,0,1-.5-0.278,0.8,0.8,0,0,1-.2-0.5V396.16h-2.7v6.973a8.516,8.516,0,0,0,.2,1.8,2.1,2.1,0,0,0,.6,1.133,2.511,2.511,0,0,0,1.2.589,10.528,10.528,0,0,0,2,.166,18.121,18.121,0,0,0,2.3-.122,12.876,12.876,0,0,0,2.2-.478V396.16h-2.8v8.306l-0.6.089a7.149,7.149,0,0,1-.8.044A3.456,3.456,0,0,1,11270,404.511Zm11.4-8.407a4,4,0,0,0-1,.411v-4.8h-2.8v14.325a16.43,16.43,0,0,0,1.9.677,8.524,8.524,0,0,0,2.3.3,5.127,5.127,0,0,0,3.9-1.421,6.085,6.085,0,0,0,1.3-4.331,8.442,8.442,0,0,0-.3-2.388,4.183,4.183,0,0,0-.9-1.665,4.107,4.107,0,0,0-1.4-.978,4.4,4.4,0,0,0-1.7-.322A4.636,4.636,0,0,0,11281.4,396.1Zm-0.2,8.606a3.858,3.858,0,0,1-.8-0.222v-5.863a2.363,2.363,0,0,1,.8-0.389,2.742,2.742,0,0,1,.8-0.1,1.665,1.665,0,0,1,1.6.767,3.867,3.867,0,0,1,.5,2.365,5.725,5.725,0,0,1-.1,1.321,3.612,3.612,0,0,1-.4,1.111,1.652,1.652,0,0,1-1.7,1.054A5.482,5.482,0,0,1,11281.2,404.71Zm-200.9-28.729c3.3,0,4.3,2.317,5.1,4.633l9.1,24.919a0.455,0.455,0,0,1-.3.625l-4.9,1.923a0.447,0.447,0,0,1-.6-0.28v-0.01l-2.1-6.052h-12.5l-2.2,6.111a0.457,0.457,0,0,1-.6.289l-4.9-1.923a0.5,0.5,0,0,1-.2-0.625c0.2-.869,8.6-23.739,9-24.92C11076,378.367,11077.1,375.981,11080.3,375.981Zm-14.8,41.756a0.485,0.485,0,0,0-.5.486v5.259a0.485,0.485,0,0,0,.5.486h29.1a0.473,0.473,0,0,0,.5-0.475v-5.27a0.475,0.475,0,0,0-.4-0.486h-29.2m14.8-34.16-4.2,12.847h8.5l-4.3-12.847h0Z" transform="translate(-11065 -375.969)"/>
</svg>
